<?xml version="1.0" standalone="no"?>
<!DOCTYPE svg PUBLIC "-//W3C//DTD SVG 20010904//EN"
 "http://www.w3.org/TR/2001/REC-SVG-20010904/DTD/svg10.dtd">
<svg version="1.0" xmlns="http://www.w3.org/2000/svg"
 width="260.000000pt" height="260.000000pt" viewBox="0 0 260.000000 260.000000"
 preserveAspectRatio="xMidYMid meet">
<metadata>
Created by potrace 1.11, written by Peter Selinger 2001-2013
</metadata>
<g transform="translate(0.000000,260.000000) scale(0.100000,-0.100000)"
fill="#000000" stroke="none">
<path d="M0 1300 l0 -1300 1300 0 1300 0 0 1300 0 1300 -1300 0 -1300 0 0
-1300z m845 709 c-4 -11 -18 -45 -32 -75 l-24 -54 -79 0 c-90 0 -110 -5 -110
-30 0 -22 17 -36 55 -45 113 -27 162 -110 131 -218 -20 -69 -73 -129 -144
-164 -56 -28 -59 -28 -274 -31 -120 -2 -218 -2 -218 0 0 2 13 35 29 73 l30 70
156 5 157 5 29 33 c16 18 29 41 29 52 0 22 -31 45 -72 55 -15 4 -44 21 -64 39
-33 28 -38 38 -42 88 -2 31 1 71 7 91 15 43 75 105 115 116 17 5 98 10 179 10
146 1 148 1 142 -20z m541 -51 l-33 -73 -182 -3 c-99 -1 -181 0 -181 2 0 2 9
26 21 53 11 26 25 58 30 71 8 22 11 22 193 22 l185 0 -33 -72z m504 57 c37
-19 46 -52 26 -99 l-15 -36 -119 0 c-101 0 -121 -3 -134 -17 -26 -31 -141
-292 -134 -308 4 -12 27 -15 121 -15 128 0 129 0 92 -64 -43 -75 -58 -81 -237
-84 -130 -3 -164 0 -189 13 -57 29 -53 44 69 315 111 246 131 279 180 299 42
17 306 14 340 -4z m-596 -252 c-9 -21 -23 -55 -32 -75 l-15 -38 -82 0 -82 0
-59 -130 -58 -130 -102 0 -102 0 91 205 91 205 183 0 183 0 -16 -37z m742
-235 c-8 -18 -25 -57 -37 -85 l-23 -53 -102 0 -102 0 36 85 36 85 103 0 103 0
-14 -32z m-1206 -353 c49 -25 47 -51 -8 -172 -35 -74 -60 -114 -80 -128 -24
-17 -27 -25 -20 -44 11 -30 -64 -204 -104 -242 -37 -36 -61 -39 -285 -39 -154
0 -194 3 -191 13 2 7 41 99 88 205 l85 192 142 0 c130 0 143 2 153 19 5 11 10
29 10 40 0 20 -5 21 -129 21 l-130 0 31 75 30 75 190 0 c149 0 195 -3 218 -15z
m381 -7 c-5 -13 -55 -122 -110 -242 -56 -121 -101 -221 -101 -222 0 -2 37 -5
83 -6 l83 -3 -32 -73 -33 -72 -187 0 c-107 0 -184 4 -182 9 2 5 66 149 143
320 l140 311 102 0 c102 0 102 0 94 -22z m446 10 c-3 -7 -48 -108 -101 -224
-53 -116 -96 -219 -96 -228 0 -21 23 -30 47 -18 10 6 62 109 123 246 l105 236
102 0 c102 0 102 0 94 -22 -35 -89 -254 -555 -268 -571 -36 -39 -74 -47 -243
-47 -158 0 -161 1 -185 25 -14 13 -25 34 -25 47 0 19 167 401 232 531 l18 37
101 0 c77 0 100 -3 96 -12z m761 4 c-1 -4 -16 -38 -32 -75 l-29 -67 -182 0
-183 0 31 75 31 75 184 0 c101 0 182 -4 180 -8z m-108 -231 c0 -4 -14 -38 -30
-75 l-30 -66 -80 0 -80 0 -25 -50 c-14 -27 -25 -52 -25 -54 0 -3 35 -6 78 -8
l78 -3 -32 -72 -33 -73 -181 0 c-99 0 -180 2 -180 4 0 4 170 387 177 399 6 10
363 9 363 -2z"/>
<path d="M427 755 l-27 -55 40 0 c37 0 40 3 59 46 24 53 21 64 -18 64 -23 0
-31 -8 -54 -55z"/>
</g>
</svg>
