<?xml version="1.0" standalone="no"?>
<!DOCTYPE svg PUBLIC "-//W3C//DTD SVG 20010904//EN"
 "http://www.w3.org/TR/2001/REC-SVG-20010904/DTD/svg10.dtd">
<svg version="1.0" xmlns="http://www.w3.org/2000/svg"
 width="150.000000pt" height="150.000000pt" viewBox="0 0 150.000000 150.000000"
 preserveAspectRatio="xMidYMid meet">
<metadata>
Created by potrace 1.11, written by Peter Selinger 2001-2013
</metadata>
<g transform="translate(0.000000,150.000000) scale(0.100000,-0.100000)"
fill="#000000" stroke="none">
<path d="M697 1474 c-1 -2 -26 -5 -55 -9 -30 -3 -61 -10 -70 -15 -9 -5 -34
-17 -55 -26 -33 -14 -122 -104 -122 -123 0 -3 -3 -11 -7 -17 -29 -45 -26 -166
5 -235 59 -129 59 -130 58 -237 0 -69 4 -111 13 -125 7 -12 12 -33 10 -47 -3
-39 30 -68 79 -68 23 0 50 -1 59 -1 10 -1 25 -12 34 -26 20 -31 11 -75 -24
-116 -14 -17 -27 -42 -28 -55 -2 -20 -39 -67 -95 -123 -18 -18 -61 -102 -55
-108 2 -2 0 -19 -4 -38 -7 -29 -4 -36 14 -48 17 -11 73 -14 134 -8 18 2 15 25
-9 54 -15 20 -18 31 -10 44 6 10 11 14 11 9 0 -5 16 8 35 28 31 34 144 96 173
96 6 0 21 -9 33 -21 21 -21 21 -21 1 -42 -11 -12 -27 -37 -36 -54 -16 -32 -16
-33 14 -64 16 -18 30 -36 30 -40 0 -12 117 -11 125 0 3 5 -9 23 -27 40 l-33
31 23 16 c12 8 20 19 17 24 -3 5 10 23 29 41 30 26 35 37 32 68 -1 20 -11 54
-21 76 -10 22 -20 51 -22 65 -2 14 -10 42 -18 63 -8 20 -12 37 -8 37 3 0 -4
11 -17 25 -13 14 -19 26 -14 27 32 5 179 19 204 20 27 0 124 41 147 61 17 15
21 27 16 46 -13 56 -32 56 -137 -1 -39 -21 -68 -26 -188 -29 -43 -2 -72 2 -82
10 -17 15 -22 51 -7 51 24 0 117 113 168 203 77 137 96 196 91 277 -9 134 -92
219 -248 257 -17 4 -160 10 -163 7z"/>
</g>
</svg>
